<svg xmlns="http://www.w3.org/2000/svg" viewBox="0 0 1024 1024"><!--! Font Awesome Free 6.2.1 by @fontawesome - https://fontawesome.com License - https://fontawesome.com/license/free (Icons: CC BY 4.0, Fonts: SIL OFL 1.1, Code: MIT License) Copyright 2022 Fonticons, Inc. --><ellipse style="fill:#399be2;fill-opacity:1" cx="512" cy="512" rx="512" ry="512" /><path d="m 325,708 c 0,35.3 28.7,64 64,64 H 549 V 644 c 0,-17.7 14.3,-32 32,-32 H 709 V 324 c 0,-35.3 -28.7,-64 -64,-64 H 389 c -35.3,0 -64,28.7 -64,64 z m 171.3,-372.7 -96,96 c -6.2,6.2 -16.4,6.2 -22.6,0 -6.2,-6.2 -6.2,-16.4 0,-22.6 l 96,-96 c 6.2,-6.2 16.4,-6.2 22.6,0 6.2,6.2 6.2,16.4 0,22.6 z m 96,32 -160,160 c -6.2,6.2 -16.4,6.2 -22.6,0 -6.2,-6.2 -6.2,-16.4 0,-22.6 l 160,-160 c 6.2,-6.2 16.4,-6.2 22.6,0 6.2,6.2 6.2,16.4 0,22.6 z M 709,644 H 581 v 128 z" style="fill:#ffffff"/></svg>