<svg xmlns="http://www.w3.org/2000/svg" viewBox="0 0 1024 1024"><!--! Font Awesome Free 6.2.1 by @fontawesome - https://fontawesome.com License - https://fontawesome.com/license/free (Icons: CC BY 4.0, Fonts: SIL OFL 1.1, Code: MIT License) Copyright 2022 Fonticons, Inc. --><ellipse style="fill:#eb66a2;fill-opacity:1" cx="512" cy="512" rx="512" ry="512" /><path d="m 354,260 c -35.3,0 -64,28.7 -64,64 v 384 c 0,35.3 28.7,64 64,64 h 256.00001 c 35.29999,0 64,-28.7 64,-64 v -19.3 c -2.70001,1.1 -5.4,2 -8.20001,2.7 l -60.1,15 c -3,0.7 -6,1.2 -9,1.4 -0.9,0.1 -1.8,0.2 -2.7,0.2 h -64 c -6.1,0 -11.6,-3.4 -14.3,-8.8 l -8.8,-17.7 c -1.7,-3.4 -5.1,-5.5 -8.8,-5.5 -3.7,0 -7.2,2.1 -8.8,5.5 l -8.8,17.7 c -2.9,5.9 -9.2,9.4 -15.7,8.8 -6.5,-0.6 -12.1,-5.1 -13.9,-11.3 L 434,641 l -9.8,32.8 c -6.1,20.3 -24.8,34.2 -46,34.2 H 370 c -8.8,0 -16,-7.2 -16,-16 0,-8.8 7.2,-16 16,-16 h 8.2 c 7.1,0 13.3,-4.6 15.3,-11.4 l 14.9,-49.5 c 3.4,-11.3 13.8,-19.1 25.6,-19.1 11.8,0 22.2,7.8 25.6,19.1 l 11.6,38.6 c 7.4,-6.2 16.8,-9.7 26.8,-9.7 15.9,0 30.4,9 37.5,23.2 l 4.4,8.8 h 8.9 c -3.09999,-8.8 -3.69999,-18.4 -1.39999,-27.8 l 15,-60.1 c 2.8,-11.3 8.6,-21.5 16.8,-29.7 l 94.8,-94.8 V 420 H 546 c -17.7,0 -32,-14.3 -32,-32 V 260 Z m 192,0 v 128 h 128.00001 z m 293.8,139.7 c -15.6,-15.6 -40.9,-15.6 -56.6,0 l -29.4,29.4 71,71 29.4,-29.4 c 15.6,-15.6 15.6,-40.9 0,-56.6 z M 601.9,581 c -4.1,4.1 -7,9.2 -8.4,14.9 l -15,60.1 c -1.39999,5.5 0.2,11.2 4.2,15.2 4,4 9.7,5.6 15.2,4.2 l 60.10001,-15 C 663.60001,659 668.8,656.1 672.9,652 l 129.2,-129.3 -71,-71 z" style="fill:#ffffff"/></svg>