<svg xmlns="http://www.w3.org/2000/svg" viewBox="0 0 1024 1024"><!--! Font Awesome Free 6.2.1 by @fontawesome - https://fontawesome.com License - https://fontawesome.com/license/free (Icons: CC BY 4.0, Fonts: SIL OFL 1.1, Code: MIT License) Copyright 2022 Fonticons, Inc. --><ellipse style="fill:#399be2;fill-opacity:1" cx="512" cy="512" rx="512" ry="512" /><path d="m 325,324 c 0,-35.35 28.65,-64 64,-64 h 165.5 c 17,0 33.2,6.743 45.2,18.75 l 90.6,90.55 c 12,12 18.7,28.2 18.7,45.2 V 708 c 0,35.3 -28.7,64 -64,64 H 389 c -35.35,0 -64,-28.7 -64,-64 z M 661,708 V 420 h -80 c -17.7,0 -32,-14.3 -32,-32 V 308 H 389 c -8.84,0 -16,7.16 -16,16 v 384 c 0,8.8 7.16,16 16,16 h 256 c 8.8,0 16,-7.2 16,-16 z" style="fill:#ffffff"/></svg>