<svg xmlns="http://www.w3.org/2000/svg" viewBox="0 0 1024 1024"><!--! Font Awesome Free 6.2.1 by @fontawesome - https://fontawesome.com License - https://fontawesome.com/license/free (Icons: CC BY 4.0, Fonts: SIL OFL 1.1, Code: MIT License) Copyright 2022 Fonticons, Inc. --><ellipse style="fill:#399be2;fill-opacity:1" cx="512" cy="512" rx="512" ry="512" /><path d="m 473,235 h -40 c -26.5,0 -48,21.5 -48,48 v 112 c 0,35.3 28.7,64 64,64 h 128 c 35.3,0 64,-28.7 64,-64 V 283 c 0,-26.5 -21.5,-48 -48,-48 h -40 v 80 c 0,8.8 -7.2,16 -16,16 h -48 c -8.8,0 -16,-7.2 -16,-16 z M 289,491 c -35.3,0 -64,28.7 -64,64 v 128 c 0,35.3 28.7,64 64,64 h 160 c 35.3,0 64,-28.7 64,-64 V 555 c 0,-35.3 -28.7,-64 -64,-64 h -40 v 80 c 0,8.8 -7.2,16 -16,16 h -48 c -8.8,0 -16,-7.2 -16,-16 v -80 z m 288,256 h 160 c 35.3,0 64,-28.7 64,-64 V 555 c 0,-35.3 -28.7,-64 -64,-64 h -40 v 80 c 0,8.8 -7.2,16 -16,16 h -48 c -8.8,0 -16,-7.2 -16,-16 v -80 h -40 c -15,0 -28.8,5.1 -39.7,13.8 4.9,10.4 7.7,22 7.7,34.2 v 160 c 0,12.2 -2.8,23.8 -7.7,34.2 10.9,8.7 24.7,13.8 39.7,13.8 z" style="fill:#ffffff"/></svg>