<svg xmlns="http://www.w3.org/2000/svg" viewBox="0 0 1024 1024"><!--! Font Awesome Free 6.2.1 by @fontawesome - https://fontawesome.com License - https://fontawesome.com/license/free (Icons: CC BY 4.0, Fonts: SIL OFL 1.1, Code: MIT License) Copyright 2022 Fonticons, Inc. --><ellipse style="fill:#f7634d;fill-opacity:1" cx="512" cy="512" rx="512" ry="512" /><path d="m 442.97618,278 c 0,26.5 -21.5,48 -48,48 -26.5,0 -48,-21.5 -48,-48 0,-26.5 21.5,-48 48,-48 26.5,0 48,21.5 48,48 z m -56,304 v 128 c 0,17.7 -14.3,32 -32,32 -17.7,0 -32,-14.3 -32,-32 V 486.9 l -28.6,47.6 c -9.1,15.1 -28.8,20 -43.9,10.9 -15.1,-9.1 -20,-28.8 -10.9,-43.9 l 58.3,-97 c 17.4,-28.9 48.6,-46.6 82.3,-46.6 h 29.7 c 33.7,0 64.9,17.7 82.3,46.6 l 44.9,74.7 c -16.1,17.6 -28.6,38.5 -36.6,61.5 -1.9,-1.8 -3.5,-3.9 -4.9,-6.3 l -28.6,-47.5 V 710 c 0,17.7 -14.3,32 -32,32 -17.7,0 -32,-14.3 -32,-32 V 582 Z m 280,160 c -79.5,0 -144,-64.5 -144,-144 0,-79.5 64.5,-144 144,-144 79.5,0 144,64.5 144,144 0,79.5 -64.5,144 -144,144 z m 0,-48 c 13.3,0 24,-10.7 24,-24 0,-13.3 -10.7,-24 -24,-24 -13.3,0 -24,10.7 -24,24 0,13.3 10.7,24 24,24 z m -64,-142.4 v 6.4 c 0,8.8 7.2,16 16,16 8.8,0 16,-7.2 16,-16 v -6.4 c 0,-5.3 4.3,-9.6 9.6,-9.6 h 40.5 c 7.7,0 13.9,6.2 13.9,13.9 0,5.2 -2.9,9.9 -7.4,12.3 l -32,16.8 c -5.3,2.8 -8.6,8.2 -8.6,14.2 V 614 c 0,8.8 7.2,16 16,16 8.8,0 16,-7.2 16,-16 v -5.1 l 23.5,-12.3 c 15.1,-7.9 24.5,-23.6 24.5,-40.6 0,-25.4 -20.6,-45.9 -45.9,-45.9 h -40.5 c -23,0 -41.6,18.6 -41.6,41.6 z" style="fill:#ffffff"/></svg>