<svg xmlns="http://www.w3.org/2000/svg" viewBox="0 0 1024 1024"><!--! Font Awesome Free 6.2.1 by @fontawesome - https://fontawesome.com License - https://fontawesome.com/license/free (Icons: CC BY 4.0, Fonts: SIL OFL 1.1, Code: MIT License) Copyright 2022 Fonticons, Inc. --><ellipse style="fill:#11a676;fill-opacity:1" cx="512" cy="512" rx="512" ry="512" /><path d="m 738,354 c 0,-35.3 -28.7,-64 -64,-64 H 354 c -35.3,0 -64,28.7 -64,64 v 320 c 0,35.3 28.7,64 64,64 h 320 c 35.3,0 64,-28.7 64,-64 z m -192,64 c 0,17.7 -14.3,32 -32,32 h -96 c -17.7,0 -32,-14.3 -32,-32 0,-17.7 14.3,-32 32,-32 h 96 c 17.7,0 32,14.3 32,32 z m 64,64 c 17.7,0 32,14.3 32,32 0,17.7 -14.3,32 -32,32 H 418 c -17.7,0 -32,-14.3 -32,-32 0,-17.7 14.3,-32 32,-32 z M 482,610 c 0,17.7 -14.3,32 -32,32 h -32 c -17.7,0 -32,-14.3 -32,-32 0,-17.7 14.3,-32 32,-32 h 32 c 17.7,0 32,14.3 32,32 z" style="fill:#ffffff"/></svg>