<svg xmlns="http://www.w3.org/2000/svg" viewBox="0 0 1024 1024"><!--! Font Awesome Free 6.2.1 by @fontawesome - https://fontawesome.com License - https://fontawesome.com/license/free (Icons: CC BY 4.0, Fonts: SIL OFL 1.1, Code: MIT License) Copyright 2022 Fonticons, Inc. --><ellipse style="fill:#f7634d;fill-opacity:1" cx="512" cy="512" rx="512" ry="512" /><path d="m 287,295 h 448 c 17.7,0 32,14.3 32,32 v 32 c 0,17.7 -14.3,32 -32,32 H 287 c -17.7,0 -32,-14.3 -32,-32 v -32 c 0,-17.7 14.3,-32 32,-32 z m 0,128 h 448 v 256 c 0,35.3 -28.7,64 -64,64 H 351 c -35.3,0 -64,-28.7 -64,-64 z m 128,80 c 0,8.8 7.2,16 16,16 h 160 c 8.8,0 16,-7.2 16,-16 0,-8.8 -7.2,-16 -16,-16 H 431 c -8.8,0 -16,7.2 -16,16 z" style="fill:#ffffff"/></svg>