<svg xmlns="http://www.w3.org/2000/svg" viewBox="0 0 1024 1024"><!--! Font Awesome Free 6.2.1 by @fontawesome - https://fontawesome.com License - https://fontawesome.com/license/free (Icons: CC BY 4.0, Fonts: SIL OFL 1.1, Code: MIT License) Copyright 2022 Fonticons, Inc. --><ellipse style="fill:#f7634d;fill-opacity:1" cx="512" cy="512" rx="512" ry="512" /><path d="m 738,340 v 48 c 0,44.2 -100.3,80 -224,80 -123.7,0 -224,-35.8 -224,-80 v -48 c 0,-44.2 100.3,-80 224,-80 123.7,0 224,35.8 224,80 z M 683.2,474.7 C 704,467.3 723.1,457.8 738,446.1 V 548 c 0,44.2 -100.3,80 -224,80 -123.7,0 -224,-35.8 -224,-80 V 446.1 c 14.9,11.8 34,21.2 54.8,28.6 44.9,16 104.7,25.3 169.2,25.3 64.5,0 124.3,-9.3 169.2,-25.3 z M 290,606.1 c 14.9,11.8 34,21.2 54.8,28.6 44.9,16 104.7,25.3 169.2,25.3 64.5,0 124.3,-9.3 169.2,-25.3 20.8,-7.4 39.9,-16.9 54.8,-28.6 v 85.89998 c 0,44.2 -100.3,80 -224,80 -123.7,0 -224,-35.8 -224,-80 z" style="fill:#ffffff"/></svg>