<svg xmlns="http://www.w3.org/2000/svg" viewBox="0 0 1024 1024"><!--! Font Awesome Free 6.2.1 by @fontawesome - https://fontawesome.com License - https://fontawesome.com/license/free (Icons: CC BY 4.0, Fonts: SIL OFL 1.1, Code: MIT License) Copyright 2022 Fonticons, Inc. --><ellipse style="fill:#399be2;fill-opacity:1" cx="512" cy="512" rx="512" ry="512" /><path d="m 781.975,526.85517 c 56.5,-56.5 56.5,-148 0,-204.5 -50,-50 -128.8,-56.5 -186.3,-15.4 l -1.6,1.1 c -14.4,10.3 -17.7,30.3 -7.4,44.6 10.3,14.3 30.3,17.7 44.6,7.4 l 1.6,-1.1 c 32.1,-22.9 76,-19.3 103.8,8.6 31.5,31.5 31.5,82.5 0,114 l -112.2,112.4 c -31.5,31.5 -82.5,31.5 -114,0 -27.9,-27.9 -31.5,-71.8 -8.6,-103.8 l 1.1,-1.6 c 10.3,-14.4 6.9,-34.4 -7.4,-44.6 -14.3,-10.2 -34.4,-6.9 -44.6,7.4 l -1.1,1.6 c -41.2,57.4 -34.7,136.2 15.3,186.2 56.5,56.5 148,56.5 204.5,0 z m -519.6,-23.4 c -56.5,56.5 -56.5,148 0,204.5 50,50 128.8,56.5 186.3,15.4 l 1.6,-1.1 c 14.4,-10.3 17.7,-30.3 7.4,-44.6 -10.3,-14.3 -30.3,-17.7 -44.6,-7.4 l -1.6,1.1 c -32.1,22.9 -76,19.3 -103.8,-8.6 -31.5,-31.6 -31.5,-82.6 0,-114.1 l 112.2,-112.3 c 31.5,-31.5 82.5,-31.5 114,0 27.9,27.9 31.5,71.8 8.6,103.9 l -1.1,1.6 c -10.3,14.4 -6.9,34.4 7.4,44.6 14.3,10.2 34.4,6.9 44.6,-7.4 l 1.1,-1.6 c 41.2,-57.5 34.7,-136.3 -15.3,-186.3 -56.5,-56.5 -148,-56.5 -204.5,0 z" style="fill:#ffffff"/></svg>