<svg xmlns="http://www.w3.org/2000/svg" viewBox="0 0 1024 1024"><!--! Font Awesome Free 6.2.1 by @fontawesome - https://fontawesome.com License - https://fontawesome.com/license/free (Icons: CC BY 4.0, Fonts: SIL OFL 1.1, Code: MIT License) Copyright 2022 Fonticons, Inc. --><ellipse style="fill:#11a676;fill-opacity:1" cx="512" cy="512" rx="512" ry="512" /><path d="m 403.12672,476.9 c -17.7,0 -32,14.2 -32,31.1 0,18.6 14.3,32.9 32,32.9 17.7,0 31.1,-14.25 31.1,-32 0,-17.75 -13.3,-32 -31.1,-32 z m 112,-0.9 c -17.75,0 -31.1,14.25 -31.1,32 0,17.75 14.25,31.1 31.1,31.1 16.85,0 31.1,-14.25 31.1,-31.1 0,-16.85 -13.3,-32 -31.1,-32 z m 112,0.9 c -17.75,0 -31.1,14.25 -31.1,32 0,17.75 14.25,32 31.1,32 17.75,0 31.99,-14.25 31.99,-32 0.01,-17.8 -14.19,-32 -31.99,-32 z m -112,-176.9 c -141.4,0 -255.1,93.12 -255.1,208 0,47.62 19.91,91.25 52.91,126.3 -14.87,39.5 -45.87,72.88 -46.37,73.25 -6.624,7 -8.373,17.25 -4.624,26 3.002,9.55 11.564,15.35 21.184,15.35 61.49,0 109.1,-25.75 139.1,-46.25 28.87,9 60.16,14.25 92.9,14.25 141.4,0 255.1,-93.13 255.1,-207.1 0,-113.97 -113.7,-209.8 -255.1,-209.8 z m 0,368.9 c -26.75,0 -53.12,-4.125 -78.36,-12.12 l -22.75,-7.125 -19.49,13.745 c -14.25,10.12 -33.87,21.38 -57.49,29 7.374,-12.12 14.37,-25.75 19.87,-40.25 l 10.62,-28 -20.62,-21.87 c -17.97,-19.28 -39.72,-51.18 -39.72,-93.38 0,-88.25 93.24,-160 207.1,-160 113.86,0 207.1,71.75 207.1,160 0,88.25 -91.46,160 -206.26,160 z" style="fill:#ffffff"/></svg>