<svg xmlns="http://www.w3.org/2000/svg" viewBox="0 0 1024 1024"><!--! Font Awesome Free 6.2.1 by @fontawesome - https://fontawesome.com License - https://fontawesome.com/license/free (Icons: CC BY 4.0, Fonts: SIL OFL 1.1, Code: MIT License) Copyright 2022 Fonticons, Inc. --><ellipse style="fill:#f7634d;fill-opacity:1" cx="512" cy="512" rx="512" ry="512" /><path d="m 678.4,417.9 c 35.3,-8.3 61.6,-40 61.6,-77.9 0,-44.2 -35.8,-80 -80,-80 -43.4,0 -78.7,34.5 -80,77.5 L 396.2,411.1 C 381.7,396.8 361.9,388 340,388 c -44.2,0 -80,35.8 -80,80 0,44.2 35.8,80 80,80 12.2,0 23.8,-2.7 34.1,-7.6 l 145.6,127.4 c -2.4,7.6 -3.7,15.8 -3.7,24.2 0,44.2 35.8,80 80,80 44.2,0 80,-35.8 80,-80 0,-27.7 -14,-52.1 -35.4,-66.4 z m -262.1,74.3 c 2.2,-6.9 3.5,-14.2 3.7,-21.7 L 603.8,397 c 3.6,3.5 7.4,6.7 11.6,9.5 l -37.8,207.6 c -5.5,1.3 -10.8,3.1 -15.8,5.5 z" style="fill:#ffffff"/></svg>