<svg xmlns="http://www.w3.org/2000/svg" viewBox="0 0 1024 1024"><!--! Font Awesome Free 6.2.1 by @fontawesome - https://fontawesome.com License - https://fontawesome.com/license/free (Icons: CC BY 4.0, Fonts: SIL OFL 1.1, Code: MIT License) Copyright 2022 Fonticons, Inc. --><ellipse style="fill:#399be2;fill-opacity:1" cx="512" cy="512" rx="512" ry="512" /><path d="m 300,352.90035 v 149.5 c 0,17 6.7,33.3 18.7,45.3 l 176,176 c 25,25 65.5,25 90.5,0 l 133.5,-133.5 c 25,-25 25,-65.5 0,-90.5 l -176,-176 c -12,-12 -28.3,-18.7 -45.3,-18.7 H 348 c -26.5,-0.1 -48,21.4 -48,47.9 z m 112,96 c -17.7,0 -32,-14.3 -32,-32 0,-17.7 14.3,-32 32,-32 17.7,0 32,14.3 32,32 0,17.7 -14.3,32 -32,32 z" style="fill:#ffffff"/></svg>