<svg xmlns="http://www.w3.org/2000/svg" viewBox="0 0 1024 1024"><!--! Font Awesome Free 6.2.1 by @fontawesome - https://fontawesome.com License - https://fontawesome.com/license/free (Icons: CC BY 4.0, Fonts: SIL OFL 1.1, Code: MIT License) Copyright 2022 Fonticons, Inc. --><ellipse style="fill:#11a676;fill-opacity:1" cx="512" cy="512" rx="512" ry="512" /><path d="m 466.575,395.675 c -12.5,12.5 -32.8,12.5 -45.3,0 -12.5,-12.5 -12.5,-32.8 0,-45.3 l 96,-96 c 12.5,-12.5 32.8,-12.5 45.3,0 l 96,96 c 12.5,12.5 12.5,32.8 0,45.3 -12.5,12.5 -32.8,12.5 -45.3,0 l -41.3,-41.3 v 274.7 c 0,35.3 28.7,64 64,64 h 64 c 17.7,0 32,14.3 32,32 0,17.7 -14.3,32 -32,32 h -64 c -70.7,0 -128,-57.3 -128,-128 0,-35.3 -28.7,-64 -64,-64 h -114.7 l 41.4,41.4 c 12.5,12.5 12.5,32.8 0,45.3 -12.5,12.5 -32.8,12.5 -45.3,0 l -96,-96 c -12.5,-12.5 -12.5,-32.8 0,-45.3 l 96,-96 c 12.5,-12.5 32.8,-12.5 45.3,0 12.5,12.5 12.5,32.8 0,45.3 l -41.4,41.3 h 114.7 c 23.3,0 45.2,6.2 64,17.1 v -163.8 l -41.4,41.4 z" style="fill:#ffffff"/></svg>