<svg xmlns="http://www.w3.org/2000/svg" viewBox="0 0 1024 1024"><!--! Font Awesome Free 6.2.1 by @fontawesome - https://fontawesome.com License - https://fontawesome.com/license/free (Icons: CC BY 4.0, Fonts: SIL OFL 1.1, Code: MIT License) Copyright 2022 Fonticons, Inc. --><ellipse style="fill:#f7634d;fill-opacity:1" cx="512" cy="512" rx="512" ry="512" /><path d="m 374,346 c 0,30.9 -25.1,56 -56,56 -30.9,0 -56,-25.1 -56,-56 0,-30.9 25.1,-56 56,-56 30.9,0 56,25.1 56,56 z M 254,503.7 c -10,11.2 -16,26.1 -16,42.3 0,16.2 6,31.1 16,42.3 z M 398.4,454.4 C 368.7,480.7 350,519.2 350,562 c 0,34.3 12,65.8 32,90.5 V 674 c 0,17.7 -14.3,32 -32,32 h -64 c -17.7,0 -32,-14.3 -32,-32 v -26.8 c -37.8,-18 -64,-56.5 -64,-101.2 0,-61.9 50.1,-112 112,-112 h 32 c 24,0 46.2,7.5 64.4,20.3 z M 638,674 V 652.5 C 658,627.8 670,596.3 670,562 670,519.2 651.3,480.7 621.6,454.3 639.8,441.5 662,434 686,434 h 32 c 61.9,0 112,50.1 112,112 0,44.7 -26.2,83.2 -64,101.2 V 674 c 0,17.7 -14.3,32 -32,32 h -64 c -17.7,0 -32,-14.3 -32,-32 z M 758,346 c 0,30.9 -25.1,56 -56,56 -30.9,0 -56,-25.1 -56,-56 0,-30.9 25.1,-56 56,-56 30.9,0 56,25.1 56,56 z m 8,157.7 v 84.7 c 10,-11.3 16,-26.1 16,-42.3 0,-16.2 -6,-31.1 -16,-42.3 z M 510,418 c -35.3,0 -64,-28.7 -64,-64 0,-35.3 28.7,-64 64,-64 35.3,0 64,28.7 64,64 0,35.3 -28.7,64 -64,64 z m -80,144 c 0,16.2 6,31 16,42.3 V 519.7 C 436,531 430,545.8 430,562 Z m 144,-42.3 v 84.7 c 10,-11.3 16,-26.1 16,-42.3 0,-16.2 -6,-31.1 -16,-42.3 z m 64,42.3 c 0,44.7 -26.2,83.2 -64,101.2 V 706 c 0,17.7 -14.3,32 -32,32 h -64 c -17.7,0 -32,-14.3 -32,-32 v -42.8 c -37.8,-18 -64,-56.5 -64,-101.2 0,-61.9 50.1,-112 112,-112 h 32 c 61.9,0 112,50.1 112,112 z" style="fill:#ffffff"/></svg>