<svg xmlns="http://www.w3.org/2000/svg" viewBox="0 0 1024 1024"><!--! Font Awesome Free 6.2.1 by @fontawesome - https://fontawesome.com License - https://fontawesome.com/license/free (Icons: CC BY 4.0, Fonts: SIL OFL 1.1, Code: MIT License) Copyright 2022 Fonticons, Inc. --><ellipse style="fill:#399be2;fill-opacity:1" cx="512" cy="512" rx="512" ry="512" /><path d="m 482,329.8 c 0,-9.2 -5.8,-17.3 -13.2,-22.8 -11.6,-8.7 -18.8,-20.7 -18.8,-34 0,-26.5 28.7,-48 64,-48 35.3,0 64,21.5 64,48 0,13.3 -7.2,25.3 -18.8,34 -7.4,5.5 -13.2,13.6 -13.2,22.8 0,12.8 10.4,23.2 23.2,23.2 H 626 c 26.5,0 48,21.5 48,48 v 56.8 c 0,12.8 10.4,23.2 23.2,23.2 9.2,0 17.3,-5.8 22.8,-13.2 8.7,-11.6 20.7,-18.8 34,-18.8 26.5,0 48,28.7 48,64 0,35.3 -21.5,64 -48,64 -13.3,0 -25.3,-7.2 -34,-18.8 C 714.5,550.8 706.4,545 697.2,545 684.4,545 674,555.4 674,568.2 V 689 c 0,26.5 -21.5,48 -48,48 h -56.8 c -12.8,0 -23.2,-10.4 -23.2,-23.2 0,-9.2 5.8,-17.3 13.2,-22.8 11.6,-8.7 18.8,-20.7 18.8,-34 0,-26.5 -28.7,-48 -64,-48 -35.3,0 -64,21.5 -64,48 0,13.3 7.2,25.3 18.8,34 7.4,5.5 13.2,13.6 13.2,22.8 0,12.8 -10.4,23.2 -23.2,23.2 H 338 c -26.5,0 -48,-21.5 -48,-48 V 568.2 c 0,-12.8 10.4,-23.2 23.2,-23.2 9.2,0 17.3,5.8 22.8,13.2 8.7,11.6 20.7,18.8 34,18.8 26.5,0 48,-28.7 48,-64 0,-35.3 -21.5,-64 -48,-64 -13.3,0 -25.3,7.2 -34,18.8 -5.5,7.4 -13.6,13.2 -22.8,13.2 C 300.4,481 290,470.6 290,457.8 V 401 c 0,-26.5 21.5,-48 48,-48 h 120.8 c 12.8,0 23.2,-10.4 23.2,-23.2 z" style="fill:#ffffff"/></svg>