<svg xmlns="http://www.w3.org/2000/svg" viewBox="0 0 1024 1024"><!--! Font Awesome Free 6.2.1 by @fontawesome - https://fontawesome.com License - https://fontawesome.com/license/free (Icons: CC BY 4.0, Fonts: SIL OFL 1.1, Code: MIT License) Copyright 2022 Fonticons, Inc. --><ellipse style="fill:#399be2;fill-opacity:1" cx="512" cy="512" rx="512" ry="512" /><path d="M 479.6,729.5 C 490.4,733.3 502,725.4 502,714 V 336.6 c 0,-4.2 -1.6,-8.4 -5,-11 C 477.4,310 432.4,290 374,290 c -56.5,0 -108.9,16.6 -135,27.9 -5.6,2.4 -9,8 -9,14 v 380.2 c 0,11.9 12.8,20.2 24.1,16.5 31.5,-10.5 81.4,-22.6 119.9,-22.6 33.9,0 79,14 105.6,23.5 z m 76.8,0 C 583,720 628.1,706 662,706 c 38.5,0 88.4,12.1 119.9,22.6 11.3,3.8 24.1,-4.6 24.1,-16.5 V 331.9 c 0,-6.1 -3.4,-11.6 -9,-14 C 770.9,306.6 718.5,290 662,290 c -58.4,0 -103.4,20 -123,35.6 -3.3,2.6 -5,6.8 -5,11 V 714 c 0,11.4 11.7,19.3 22.4,15.5 z" style="fill:#ffffff"/></svg>