<svg xmlns="http://www.w3.org/2000/svg" viewBox="0 0 1024 1024"><!--! Font Awesome Free 6.2.1 by @fontawesome - https://fontawesome.com License - https://fontawesome.com/license/free (Icons: CC BY 4.0, Fonts: SIL OFL 1.1, Code: MIT License) Copyright 2022 Fonticons, Inc. --><ellipse style="fill:#eb66a2;fill-opacity:1" cx="512" cy="512" rx="512" ry="512" /><path d="m 390.42926,319 c 0,35.3 -28.7,64 -64,64 -35.3,0 -64,-28.7 -64,-64 0,-35.3 28.7,-64 64,-64 35.3,0 64,28.7 64,64 z m -166.1,169.4 c 3.4,-41.5 38.1,-73.4 79.7,-73.4 h 44.8 c 27,0 51,13.4 65.5,34.1 -2.7,1.9 -5.2,4 -7.5,6.3 l -64,64 c -21.9,21.9 -21.9,57.3 0,79.2 l 47.6,47.6 V 719 c 0,26.5 -21.5,48 -48,48 h -32 c -26.5,0 -48,-21.5 -48,-48 V 603.3 c -26.5,-9.5 -44.7,-35.8 -42.2,-65.6 z m 550.1,-169.4 c 0,35.3 -28.7,64 -64,64 -35.3,0 -64,-28.7 -64,-64 0,-35.3 28.7,-64 64,-64 35.3,0 64,28.7 64,64 z m -144.4,136.4 c -2.3,-2.3 -4.9,-4.4 -7.5,-6.3 14.5,-20.7 38.6,-34.1 65.5,-34.1 h 44.8 c 41.6,0 76.3,31.9 79.7,73.4 l 4.1,49.3 c 2.5,29.8 -15.7,56.1 -42.2,65.6 V 719 c 0,26.5 -21.5,48 -48,48 h -32 c -26.5,0 -48,-21.5 -48,-48 v -72.8 l 47.6,-47.6 c 21.9,-21.9 21.9,-57.3 0,-79.2 z m -159.6,39.6 v 32 h 96 v -32 c 0,-9.7 5.8,-18.5 14.8,-22.2 9,-3.7 19.3,-1.7 26.2,5.2 l 64,64 c 9.4,9.4 9.4,24.6 0,33.9 l -64,64 c -6.9,6.9 -17.2,8.9 -26.2,5.2 -9,-3.7 -14.8,-12.5 -14.8,-22.2 V 591 h -96 v 32 c 0,9.7 -5.8,18.5 -14.8,22.2 -9,3.7 -19.3,1.7 -26.2,-5.2 l -64,-64 c -9.4,-9.4 -9.4,-24.6 0,-33.9 l 64,-64 c 6.9,-6.9 17.2,-8.9 26.2,-5.2 9,3.7 14.8,12.5 14.8,22.2 z" style="fill:#ffffff"/></svg>