<svg xmlns="http://www.w3.org/2000/svg" viewBox="0 0 1024 1024"><!--! Font Awesome Free 6.2.1 by @fontawesome - https://fontawesome.com License - https://fontawesome.com/license/free (Icons: CC BY 4.0, Fonts: SIL OFL 1.1, Code: MIT License) Copyright 2022 Fonticons, Inc. --><ellipse style="fill:#eb66a2;fill-opacity:1" cx="512" cy="512" rx="512" ry="512" /><path d="m 290,324 c 0,-35.3 28.7,-64 64,-64 h 160 v 128 c 0,17.7 14.3,32 32,32 h 128 v 125.7 l -86.8,86.8 c -10.3,10.3 -17.5,23.1 -21,37.2 l -18.7,74.9 c -2.3,9.2 -1.8,18.8 1.3,27.5 H 354 c -35.3,0 -64,-28.7 -64,-64 z m 384,64 H 546 V 260 Z m 165.8,107.7 14.4,14.4 c 15.6,15.6 15.6,40.9 0,56.6 l -29.4,29.4 -71,-71 29.4,-29.4 c 15.6,-15.6 40.9,-15.6 56.6,0 z M 601.9,677 731.1,547.8 l 71,71 -129.2,129.1 c -4.1,4.1 -9.2,7 -14.9,8.4 l -60.1,15 c -5.5,1.4 -11.2,-0.2 -15.2,-4.2 -4,-4 -5.6,-9.7 -4.2,-15.2 l 15,-60.1 c 1.4,-5.6 4.3,-10.8 8.4,-14.9 z" style="fill:#ffffff"/></svg>