<svg xmlns="http://www.w3.org/2000/svg" viewBox="0 0 1024 1024"><!--! Font Awesome Free 6.2.1 by @fontawesome - https://fontawesome.com License - https://fontawesome.com/license/free (Icons: CC BY 4.0, Fonts: SIL OFL 1.1, Code: MIT License) Copyright 2022 Fonticons, Inc. --><ellipse style="fill:#399be2;fill-opacity:1" cx="512" cy="512" rx="512" ry="512" /><path d="M 708,344 H 535.9 L 487.6,298.75 C 475.6,286.74 459.4,280 442.4,280 H 324 c -35.35,0 -64,28.66 -64,64 v 320 c 0,35.34 28.65,64 64,64 h 384 c 35.35,0 64,-28.66 64,-64 V 408 c 0,-35.3 -27.8,-64 -64,-64 z m 16,320 c 0,8.824 -7.178,16 -16,16 H 324 c -8.822,0 -16,-7.176 -16,-16 V 344 c 0,-8.824 7.178,-16 16,-16 h 117.5 c 4.273,0 8.293,1.664 11.31,4.688 L 516,392 h 192 c 8.822,0 16,7.176 16,16 z" style="fill:#ffffff"/></svg>