<svg xmlns="http://www.w3.org/2000/svg" viewBox="0 0 1024 1024"><!--! Font Awesome Free 6.2.1 by @fontawesome - https://fontawesome.com License - https://fontawesome.com/license/free (Icons: CC BY 4.0, Fonts: SIL OFL 1.1, Code: MIT License) Copyright 2022 Fonticons, Inc. --><ellipse style="fill:#399be2;fill-opacity:1" cx="512" cy="512" rx="512" ry="512" /><path d="m 350,324 c 0,-35.3 28.7,-64 64,-64 h 352 c 35.3,0 64,28.7 64,64 v 288 c 0,35.3 -28.7,64 -64,64 H 526.8 C 515,650.5 496.9,628.5 474.4,612 H 574 v -32 c 0,-17.7 14.3,-32 32,-32 h 64 c 17.7,0 32,14.3 32,32 v 32 h 64 V 324 H 414 v 49.1 C 395.2,362.2 373.3,356 350,356 Z m 0,256 c -53,0 -96,-43 -96,-96 0,-53 43,-96 96,-96 53,0 96,43 96,96 0,53 -43,96 -96,96 z m -26.7,32 h 53.3 C 450.3,612 510,671.7 510,745.3 510,760 498.1,772 483.3,772 H 216.7 C 201.9,772 190,760.1 190,745.3 190,671.7 249.7,612 323.3,612 Z" style="fill:#ffffff"/></svg>